<?xml version="1.0" encoding="iso-8859-1"?>
<!-- Generator: Adobe Illustrator 18.1.1, SVG Export Plug-In . SVG Version: 6.00 Build 0)  -->
<svg xmlns="http://www.w3.org/2000/svg" xmlns:xlink="http://www.w3.org/1999/xlink" version="1.1" id="Capa_1" x="0px" y="0px" viewBox="0 0 30 30" style="enable-background:new 0 0 30 30;" xml:space="preserve" width="512px" height="512px">
<g>
	<g>
		<path d="M21,12c-1.055,0-2.061,0.19-3,0.522V10h-8v2H6V8h2V0H0v8h4v15.999h6V28h5.35    c1.545,1.248,3.51,1.999,5.65,2c4.971-0.002,8.998-4.029,9-9C29.998,16.027,25.971,12,21,12z M12.059,20H10v2H6.001L6,13.998h4V18    h2.522C12.297,18.639,12.135,19.307,12.059,20z M21,27.883c-3.801-0.009-6.876-3.084-6.885-6.883    c0.009-3.801,3.084-6.876,6.885-6.885c3.799,0.009,6.874,3.084,6.883,6.885C27.874,24.799,24.799,27.874,21,27.883z" fill="#d6d6d6"/>
		<path d="M24.337,19.999c-0.063-0.212-0.146-0.413-0.245-0.606l1.188-1.187l-1.416-1.415l-1.165,1.166    c-0.22-0.123-0.452-0.221-0.697-0.294V16h-2v1.662c-0.229,0.068-0.446,0.158-0.651,0.27l-1.142-1.14l-1.415,1.415l1.141,1.141    C17.82,19.555,17.73,19.771,17.662,20H16v2h1.662c0.072,0.246,0.172,0.479,0.295,0.698l-1.165,1.163l1.413,1.416l1.188-1.188    c0.192,0.102,0.395,0.182,0.605,0.245V26H22v-1.665c0.229-0.067,0.445-0.158,0.65-0.271l1.213,1.213l1.414-1.416l-1.213-1.211    c0.111-0.205,0.201-0.422,0.271-0.65H26v-2.001C26,19.999,24.337,19.999,24.337,19.999z M20.999,22.499    c-0.829-0.002-1.498-0.671-1.501-1.5c0.003-0.829,0.672-1.498,1.501-1.501c0.829,0.003,1.498,0.672,1.5,1.501    C22.497,21.828,21.828,22.497,20.999,22.499z" fill="#d6d6d6"/>
	</g>
</g>
<g>
</g>
<g>
</g>
<g>
</g>
<g>
</g>
<g>
</g>
<g>
</g>
<g>
</g>
<g>
</g>
<g>
</g>
<g>
</g>
<g>
</g>
<g>
</g>
<g>
</g>
<g>
</g>
<g>
</g>
</svg>
