<?xml version="1.0"?>
<svg xmlns="http://www.w3.org/2000/svg" height="512px" version="1.1" viewBox="0 0 937.5 937.5" width="512px">
<g id="surface1">
<path d="M 859.375 656.25 L 703.125 656.25 C 694.492188 656.25 687.5 663.242188 687.5 671.875 L 687.5 859.375 C 687.5 868.007812 694.492188 875 703.125 875 L 859.375 875 C 868.007812 875 875 868.007812 875 859.375 L 875 671.875 C 875 663.242188 868.007812 656.25 859.375 656.25 Z M 843.75 843.75 L 718.75 843.75 L 718.75 687.5 L 843.75 687.5 Z M 843.75 843.75 " style=" fill-rule:nonzero;fill-opacity:1;" stroke="#d6d6d6" fill="#d6d6d6"/>
<path d="M 649.453125 420.4375 C 655.554688 426.539062 665.4375 426.539062 671.542969 420.4375 L 782.03125 309.953125 C 788.132812 303.847656 788.132812 293.953125 782.03125 287.851562 L 649.4375 155.277344 C 643.242188 149.410156 633.539062 149.410156 627.34375 155.277344 L 516.875 265.761719 C 510.773438 271.867188 510.773438 281.761719 516.875 287.851562 Z M 638.390625 188.421875 L 748.898438 298.902344 L 660.5 387.300781 L 550 276.804688 Z M 638.390625 188.421875 " style=" fill-rule:nonzero;fill-opacity:1;" stroke="#d6d6d6" fill="#d6d6d6"/>
<path d="M 505.828125 579.6875 C 509.96875 579.6875 513.945312 578.039062 516.875 575.109375 L 627.34375 464.605469 C 633.445312 458.507812 633.445312 448.613281 627.34375 442.507812 L 494.765625 309.9375 C 488.5625 304.078125 478.867188 304.078125 472.664062 309.9375 L 362.207031 420.421875 C 356.101562 426.519531 356.101562 436.414062 362.207031 442.507812 L 494.78125 575.109375 C 497.710938 578.039062 501.683594 579.6875 505.828125 579.6875 Z M 483.714844 343.089844 L 594.199219 453.574219 L 505.828125 541.988281 L 395.3125 431.488281 Z M 483.714844 343.089844 " style=" fill-rule:nonzero;fill-opacity:1;" stroke="#d6d6d6" fill="#d6d6d6"/>
<path d="M 78.125 250 L 265.625 250 C 274.257812 250 281.25 243.007812 281.25 234.375 L 281.25 78.125 C 281.25 69.492188 274.257812 62.5 265.625 62.5 L 78.125 62.5 C 69.492188 62.5 62.5 69.492188 62.5 78.125 L 62.5 234.375 C 62.5 243.007812 69.492188 250 78.125 250 Z M 93.75 93.75 L 250 93.75 L 250 218.75 L 93.75 218.75 Z M 93.75 93.75 " style=" fill-rule:nonzero;fill-opacity:1;" stroke="#d6d6d6" fill="#d6d6d6"/>
<path d="M 78.125 468.75 L 265.625 468.75 C 274.257812 468.75 281.25 461.757812 281.25 453.125 L 281.25 296.875 C 281.25 288.242188 274.257812 281.25 265.625 281.25 L 78.125 281.25 C 69.492188 281.25 62.5 288.242188 62.5 296.875 L 62.5 453.125 C 62.5 461.757812 69.492188 468.75 78.125 468.75 Z M 93.75 312.5 L 250 312.5 L 250 437.5 L 93.75 437.5 Z M 93.75 312.5 " style=" fill-rule:nonzero;fill-opacity:1;" stroke="#d6d6d6" fill="#d6d6d6"/>
<path d="M 281.25 671.875 L 281.25 515.625 C 281.25 506.992188 274.257812 500 265.625 500 L 78.125 500 C 69.492188 500 62.5 506.992188 62.5 515.625 L 62.5 671.875 C 62.5 680.507812 69.492188 687.5 78.125 687.5 L 265.625 687.5 C 274.257812 687.5 281.25 680.507812 281.25 671.875 Z M 250 656.25 L 93.75 656.25 L 93.75 531.25 L 250 531.25 Z M 250 656.25 " style=" fill-rule:nonzero;fill-opacity:1;" stroke="#d6d6d6" fill="#d6d6d6"/>
<path d="M 171.875 718.75 C 137.359375 718.75 109.375 746.734375 109.375 781.25 C 109.375 815.765625 137.359375 843.75 171.875 843.75 C 206.390625 843.75 234.375 815.765625 234.375 781.25 C 234.375 746.734375 206.390625 718.75 171.875 718.75 Z M 171.875 812.5 C 154.613281 812.5 140.625 798.511719 140.625 781.25 C 140.625 763.988281 154.613281 750 171.875 750 C 189.136719 750 203.125 763.988281 203.125 781.25 C 203.125 798.511719 189.136719 812.5 171.875 812.5 Z M 171.875 812.5 " style=" fill-rule:nonzero;fill-opacity:1;" stroke="#d6d6d6" fill="#d6d6d6"/>
<path d="M 875 593.75 L 586.71875 593.75 L 837.28125 343.089844 C 861.679688 318.691406 861.679688 279.121094 837.28125 254.710938 L 682.59375 100.03125 C 670.894531 88.28125 654.976562 81.6875 638.390625 81.734375 C 621.816406 81.679688 605.902344 88.257812 594.199219 100 L 343.75 350.582031 L 343.75 62.5 C 343.75 27.984375 315.765625 0 281.25 0 L 62.5 0 C 27.984375 0 0 27.984375 0 62.5 L 0 765.625 C 0.117188 860.503906 76.996094 937.382812 171.875 937.5 L 875 937.5 C 909.515625 937.5 937.5 909.515625 937.5 875 L 937.5 656.25 C 937.5 621.734375 909.515625 593.75 875 593.75 Z M 343.75 512.5 L 439.527344 608.28125 L 351.140625 696.65625 L 343.75 689.261719 Z M 342.34375 786.527344 C 342.53125 785.0625 342.769531 783.601562 342.921875 782.128906 C 343.417969 776.671875 343.75 771.1875 343.75 765.632812 L 343.75 732.246094 C 345.996094 733.574219 348.535156 734.304688 351.140625 734.375 C 355.28125 734.375 359.257812 732.726562 362.1875 729.796875 L 472.664062 619.316406 C 478.769531 613.210938 478.769531 603.320312 472.664062 597.222656 L 343.75 468.300781 L 343.75 394.78125 L 616.296875 122.140625 C 628.507812 109.929688 648.289062 109.929688 660.5 122.140625 L 815.1875 276.828125 C 827.386719 289.03125 827.386719 308.8125 815.1875 321.015625 L 370.484375 765.863281 L 341.25 795.113281 C 341.738281 792.265625 342 789.375 342.34375 786.515625 Z M 500 687.5 L 625 687.5 L 625 843.75 L 500 843.75 Z M 406.25 774.289062 L 406.25 843.75 L 336.816406 843.75 Z M 200.140625 903.390625 C 196.234375 904.203125 192.234375 904.746094 188.222656 905.21875 C 187.507812 905.296875 186.828125 905.460938 186.128906 905.527344 C 181.4375 906 176.753906 906.25 171.875 906.25 C 94.242188 906.164062 31.335938 843.257812 31.25 765.625 L 31.25 62.5 C 31.25 45.238281 45.238281 31.25 62.5 31.25 L 281.25 31.25 C 298.511719 31.25 312.5 45.238281 312.5 62.5 L 312.5 765.625 C 312.5 770.4375 312.25 775.1875 311.777344 779.878906 C 311.777344 780.589844 311.546875 781.28125 311.46875 781.992188 C 310.996094 786.015625 310.4375 790 309.640625 793.890625 L 309.53125 794.328125 C 298.027344 848.976562 255.359375 891.695312 200.722656 903.25 Z M 906.25 875 C 906.25 892.261719 892.261719 906.25 875 906.25 L 270.761719 906.25 C 278.847656 900.542969 286.414062 894.160156 293.402344 887.152344 L 305.566406 875 L 421.875 875 C 430.507812 875 437.5 868.007812 437.5 859.375 L 437.5 743.015625 L 468.75 711.765625 L 468.75 859.375 C 468.75 868.007812 475.742188 875 484.375 875 L 640.625 875 C 649.257812 875 656.25 868.007812 656.25 859.375 L 656.25 671.875 C 656.25 663.242188 649.257812 656.25 640.625 656.25 L 524.226562 656.25 L 555.476562 625 L 875 625 C 892.261719 625 906.25 638.988281 906.25 656.25 Z M 906.25 875 " style=" fill-rule:nonzero;fill-opacity:1;" stroke="#d6d6d6" fill="#d6d6d6"/>
</g>
</svg>
